<svg width="640" height="194" viewBox="0 0 640 194" fill="none" xmlns="http://www.w3.org/2000/svg">
<path fill-rule="evenodd" clip-rule="evenodd" d="M59.2442 11.1551V86.3031H143.864C152.626 86.2903 161.022 82.8088 167.218 76.6008C173.413 70.3993 176.894 61.9834 176.907 53.2155V33.1005C176.901 24.3262 173.413 15.9102 167.218 9.7087C161.029 3.49437 152.626 0.00639994 143.864 0H47.9547V4.76795C50.2267 4.76795 52.4603 5.35035 54.4379 6.47034C56.4154 7.59032 58.073 9.20311 59.2442 11.1487V11.1551ZM137.074 15.9614C141.605 15.9614 145.944 17.7662 149.151 20.9726C152.357 24.179 154.168 28.5245 154.181 33.0621V53.1707C154.168 57.7082 152.357 62.0538 149.151 65.2601C145.944 68.4665 141.599 70.2649 137.074 70.2713H103.365L99.3014 74.3417H82.0024V15.955H137.067L137.074 15.9614ZM302.73 0H201.681V15.955H302.73V0ZM580.743 33.0941V53.2027C580.737 61.977 577.249 70.3929 571.054 76.6008C564.858 82.8024 556.455 86.2903 547.694 86.3031H451.784V81.5224C454.05 81.5224 456.283 80.9336 458.255 79.8136C460.232 78.6936 461.883 77.0808 463.048 75.1353V0H547.7C556.462 0.00639994 564.858 3.49437 571.054 9.7023C577.249 15.9102 580.73 24.3198 580.743 33.0941V33.0941ZM485.806 15.955V70.2969L540.871 70.2585C545.396 70.2457 549.729 68.4409 552.922 65.2345C556.122 62.0282 557.921 57.689 557.94 53.1579V33.0493C557.927 28.5181 556.122 24.179 552.922 20.979C549.723 17.7726 545.39 15.9678 540.871 15.955H485.806ZM381.078 106.828H481.998C487.342 106.828 492.462 108.959 496.245 112.741C500.027 116.524 502.152 121.65 502.165 127.007V139.557H479.406V127.032C479.406 126.783 479.387 126.546 479.342 126.303C479.291 126.015 479.214 125.733 479.106 125.464C479.054 125.33 478.99 125.196 478.926 125.068C478.862 124.94 478.786 124.818 478.709 124.696C478.638 124.581 478.555 124.472 478.472 124.37L478.325 124.197L478.178 124.037C477.384 123.244 476.309 122.796 475.189 122.789H411.055V138.731L415.119 142.802V172.926C415.119 174.053 415.567 175.128 416.361 175.921C417.154 176.715 418.229 177.163 419.356 177.169H475.368L475.496 177.157L475.694 177.137C476.072 177.093 476.443 176.99 476.795 176.843C477.307 176.632 477.774 176.318 478.165 175.921C478.555 175.531 478.869 175.064 479.08 174.545C479.291 174.033 479.4 173.477 479.4 172.92V160.382H502.158V172.92C502.158 178.277 500.027 183.409 496.251 187.192C492.469 190.98 487.349 193.112 481.998 193.112H412.521C407.177 193.112 402.05 190.974 398.268 187.192C394.486 183.403 392.361 178.27 392.354 172.92V117.983C391.183 116.037 389.532 114.424 387.555 113.304C385.577 112.184 383.35 111.602 381.078 111.596V106.828V106.828ZM224.433 70.3289H302.723V86.2903H190.411V81.5096C192.676 81.5096 194.91 80.9208 196.881 79.8072C198.852 78.6872 200.51 77.0744 201.675 75.1288V28.2877H217.31L224.177 35.1676H286.461V51.1163H224.427V70.3289H224.433ZM249.002 112.735C252.778 116.517 254.909 121.65 254.916 127.007V145.746C254.909 151.096 252.785 156.229 249.002 160.018C245.226 163.8 240.1 165.931 234.756 165.938H173.317V193.105H139.295V188.337C141.56 188.337 143.794 187.749 145.765 186.629C147.736 185.509 149.387 183.896 150.558 181.957V106.821H234.756C240.1 106.828 245.226 108.959 249.002 112.741V112.735ZM230.91 148.722C231.703 147.928 232.145 146.853 232.151 145.733V127.007C232.151 125.887 231.703 124.812 230.91 124.018C230.116 123.224 229.041 122.776 227.921 122.776H195.192L191.128 118.706H173.31V149.97H227.921C228.529 149.97 229.124 149.835 229.662 149.586C230.116 149.375 230.539 149.087 230.903 148.722H230.91ZM104.569 106.834H0V111.602C2.26558 111.602 4.49916 112.191 6.47674 113.311C8.45432 114.431 10.1055 116.037 11.2767 117.983V137.765C11.2895 143.115 13.4143 148.242 17.1966 152.024C20.9726 155.806 26.0989 157.931 31.4365 157.938H97.7462C98.8662 157.938 99.9414 158.379 100.729 159.173C101.522 159.96 101.97 161.035 101.97 162.162V172.907C101.97 173.099 101.957 173.285 101.932 173.477C101.919 173.585 101.9 173.694 101.874 173.803C101.823 174.053 101.746 174.296 101.65 174.526C101.439 175.038 101.125 175.505 100.735 175.896C100.345 176.286 99.8774 176.6 99.3654 176.811C98.8534 177.022 98.303 177.131 97.7462 177.131H38.2588C37.1388 177.131 36.0636 176.683 35.27 175.889C34.4765 175.096 34.0349 174.021 34.0349 172.894V168.344H11.2767V193.086H104.569C109.913 193.08 115.039 190.949 118.815 187.166C122.591 183.377 124.722 178.251 124.728 172.894V162.149C124.722 156.798 122.591 151.666 118.815 147.883C115.039 144.101 109.913 141.97 104.569 141.963H38.2588C37.1388 141.963 36.0636 141.515 35.27 140.722C34.7389 140.191 34.3677 139.538 34.1757 138.821C34.0797 138.469 34.0349 138.104 34.0285 137.727V122.744H97.8358L98.079 122.757C98.2134 122.77 98.3478 122.783 98.4758 122.808C98.7766 122.866 99.071 122.949 99.3526 123.064C99.8646 123.276 100.332 123.589 100.722 123.98C101.113 124.376 101.426 124.837 101.637 125.356L101.733 125.605C101.765 125.701 101.797 125.797 101.823 125.893C101.913 126.245 101.964 126.604 101.964 126.968V131.851H124.722V126.968C124.709 121.618 122.584 116.492 118.808 112.709C115.032 108.927 109.906 106.802 104.569 106.796V106.834ZM550.439 157.944V177.169H639.955V193.124H516.411V188.357C518.676 188.357 520.91 187.768 522.888 186.648C524.865 185.528 526.516 183.921 527.688 181.976V106.841H628.743V122.796H550.452V142.008H587.028L591.092 146.079H612.474V157.95H550.439V157.944ZM285.437 106.834V111.602C287.594 111.602 289.719 112.133 291.619 113.144C293.527 114.156 295.152 115.628 296.362 117.413L255.383 193.124H278.8L286.999 177.982H309.987L314.051 173.912H349.117L353.955 182.865C352.739 184.568 351.132 185.957 349.277 186.917C347.421 187.87 345.36 188.369 343.267 188.369V193.137H382.966L336.259 106.841L285.444 106.821L285.437 106.834ZM340.515 157.944H297.866L316.899 122.77H321.469L340.515 157.944ZM348.809 80.0632C350.665 81.0232 352.726 81.516 354.819 81.516V86.2967H315.12L361.82 0H412.668V4.76795C410.511 4.76795 408.386 5.29915 406.486 6.31034C404.578 7.32153 402.953 8.79351 401.743 10.5791L442.728 86.2903H419.279L411.081 71.1225H388.092L384.028 67.0521H348.963L344.125 76.012C345.341 77.7144 346.947 79.1032 348.803 80.0568L348.809 80.0632ZM381.212 15.955H376.643L357.641 51.1227H400.252L381.219 15.955H381.212ZM635.251 106.841V107.82H633.997V111.73H632.941V107.82H631.507V106.841H635.245H635.251ZM640 111.724V106.841H638.88L638.067 109.093H637.971L637.158 106.841H636.064V111.724H637.037V108.863H637.126L637.798 110.648H638.259L638.931 108.863H639.021V111.724H639.994H640Z" fill="white"/>
</svg>
