<?xml version="1.0" encoding="utf-8"?>
<!-- Generator: Adobe Illustrator 21.0.0, SVG Export Plug-In . SVG Version: 6.00 Build 0)  -->
<svg version="1.1" id="Layer_1" xmlns="http://www.w3.org/2000/svg" xmlns:xlink="http://www.w3.org/1999/xlink" x="0px" y="0px"
	 viewBox="0 0 64.6 21.5" style="enable-background:new 0 0 64.6 21.5;" xml:space="preserve">
<style type="text/css">
	.st0{fill:#FFFFFF;}
</style>
<g>
	<path class="st0" d="M59.1,14V1.5h-3.9l-6.8,8.7c0.9,0.7,1.7,1.8,1.7,3.7c0,1.6-0.6,2.9-1.6,3.8c-0.3,0.3-0.6,0.5-1,0.7h7.5v3.2
		h4.1v-3.2h2V14H59.1z M54.9,14h-4.2l4.2-5.9V14z"/>
	<polygon class="st0" points="48.7,5 48.9,5 48.9,4.4 49.1,4.4 49.1,4.2 48.5,4.2 48.5,4.4 48.7,4.4 	"/>
	<polygon class="st0" points="49.4,4.5 49.6,4.8 49.6,4.8 49.8,4.5 49.8,5 50,5 50,4.2 49.8,4.2 49.6,4.5 49.4,4.2 49.2,4.2 49.2,5 
		49.4,5 	"/>
	<path class="st0" d="M44.1,18.4c3.2,0,5.3-1.8,5.3-4.6c0-3.1-2.3-3.8-4-4.3c-1.2-0.4-2-0.6-2-1.3c0-0.6,0.8-0.9,1.3-0.9
		c1,0,1.5,0.3,2.3,1l0.1,0.1l2-2.5L49,5.7c-1.2-1-2.8-1.6-4.4-1.6c-2.4,0-5,1.5-5,4.3c0,3,2.3,3.7,4,4.3c1.2,0.4,2,0.7,2,1.3
		c0,0.8-1.1,1-1.6,1c-1,0-1.8-0.3-2.4-1l-0.1-0.1l-1.3,1.7L38.1,4.3h-3.3L33.5,10l-1.4-7.2l-3.2,0l-2.6,15.5H30l0.8-4.9l0.9,4.9h3.5
		l0.9-5l0.6,5h3.9l-0.2-0.7l0,0C41.6,18.1,42.8,18.4,44.1,18.4z"/>
	<path class="st0" d="M22.1,10.2c0.4,0.7,0.7,1.7,0.7,2.9c0,1.1-0.2,2.1-0.7,3v2.2h4V4.3h-4V10.2z"/>
	<path class="st0" d="M17.5,8c-1.5-0.5-2.7-0.8-2.7-2c0-1,1.2-1.5,2-1.5c1.2,0,2,0.4,2.8,1.1l0.1,0.1l2.1-2.6L21.6,3
		c-1.4-1.1-3.2-1.7-5-1.7c-2.9,0-5.9,1.8-5.9,5c0,3.5,2.5,4.3,4.8,5c1.5,0.5,2.7,0.9,2.7,2c0,1.2-1.4,1.6-2.4,1.6
		c-2.2,0-3.7-1.6-4.2-2l-2,2.9c1.8,1.5,3.3,2.2,4.7,2.4c0.5,0.1,1.1,0.1,1.7,0.1c1.7,0,3.3-0.5,4.4-1.3c1.2-1,1.8-2.4,1.8-4.1
		C22.2,9.5,19.7,8.7,17.5,8z"/>
	<polygon class="st0" points="22.2,3.7 22.9,3.7 22.9,1.3 23.6,1.3 23.6,0.5 21.5,0.6 21.3,1.3 22.2,1.3 	"/>
	<path class="st0" d="M24.5,3.7V2.3c0-0.3,0.1-0.4,0.3-0.4c0.2,0,0.3,0.1,0.3,0.3l0,1.5h0.7l0-1.7c0-0.5-0.3-0.7-0.7-0.7
		c-0.3,0-0.5,0.1-0.6,0.3l0-1.1h-0.6l0,3.2H24.5z"/>
	<path class="st0" d="M27.1,3.7c0.4,0,0.7-0.1,1.1-0.4l-0.4-0.5c-0.3,0.2-0.5,0.3-0.7,0.3c-0.1,0-0.3,0-0.4-0.1l1.5-1
		c-0.3-0.5-0.6-0.7-1.1-0.7c-0.8,0-1.3,0.5-1.3,1.2C25.9,3.2,26.4,3.7,27.1,3.7z M26.6,2.4c0-0.3,0.2-0.6,0.6-0.6
		c0.1,0,0.2,0,0.3,0.1L26.6,2.4L26.6,2.4z"/>
	<path class="st0" d="M8.4,1.4L3,9.5l3,9.2l5.4-8.1L8.4,1.4z M6.1,18.3l2.6-7.7l-1.5-0.2l-1.5-0.2L6.1,18.3L5,10L3.1,9.5l2,0
		l3.2-7.6L5.7,9.6l1.5,0.2L8.8,10L8.4,1.9l1,8.2l1.9,0.5l-2,0L6.1,18.3z"/>
</g>
</svg>
