<svg width="150" height="72" viewBox="0 0 150 72" fill="none" xmlns="http://www.w3.org/2000/svg"><g clip-path="url(#clip0_5758_154390)"><path d="M74.8938 39.7397c10.9738 0 19.8698-8.896 19.8698-19.8699C94.7636 8.89603 85.8676 0 74.8938 0S55.0239 8.89603 55.0239 19.8698c0 10.9739 8.8961 19.8699 19.8699 19.8699z" fill="#fff"/><path d="M87.9659 23.0699h.5229v.0889h-.1987v.434h-.1046v-.434h-.1987l-.0209-.0889zm-23.7026 1.9975h-1.1451c-.2615 0-.387-.1412-.387-.4236v-.4496c-.0065-.1157.0308-.2296.1046-.319.0341-.0414.0773-.0743.1263-.0961.0491-.0218.1025-.0319.1561-.0294h.8941c.0956-.0065.1904.0208.2679.0772.0774.0565.1325.1383.1556.2313l.1203.4392h.8053v-.481c.0037-.1485-.0232-.2961-.0789-.4338-.0558-.1376-.1393-.2623-.2453-.3662a1.103904 1.103904 0 00-.3646-.2426c-.1365-.0557-.2828-.0834-.4302-.0816H62.909c-.1506-.0014-.3.0275-.4392.085-.1392.0575-.2655.1424-.3713.2496-.1057.1045-.1894.2291-.246.3666-.0565.1374-.0849.2848-.0834.4334v.7739c-.0014.1503.0271.2994.0838.4387.0568.1392.1406.2657.2467.3723.106.1065.2322.1909.3711.2483.139.0574.288.0865.4383.0858h1.1451c.2562 0 .3817.1464.3817.434v.5857c.0043.1138-.0329.2252-.1045.3137a.323952.323952 0 01-.123.0973.323134.323134 0 01-.1542.0282h-.8889c-.0962.0099-.1927-.0162-.2708-.0731-.0782-.057-.1326-.1408-.1527-.2354l-.1255-.4915H61.79v.5229c-.0048.1489.021.2972.0759.4357.0549.1385.1376.2643.2431.3695.1063.104.2322.1858.3705.2406.1383.0547.286.0814.4347.0784h1.3491c.1498.0007.2983-.0285.4367-.086.1384-.0575.2639-.1421.3691-.2488.1052-.1067.1881-.2333.2437-.3725.0555-.1391.0827-.288.0799-.4378v-.8994c-.0013-.3001-.1204-.5877-.3316-.8009-.2113-.2132-.4977-.3349-.7978-.339zm5.4851-1.8406c.1076.108.1916.2373.2465.3795.0549.1423.0796.2944.0725.4467v1.098c.0031.1497-.0245.2984-.0811.4369-.0567.1385-.1412.2639-.2484.3684-.1063.1079-.2334.1931-.3736.2506-.1402.0575-.2906.0861-.4421.084h-1.4693v1.9713h-.9464v-5.37h2.4262c.1513-.0009.3013.0282.4413.0856.1401.0575.2673.1421.3744.249zm-.617.9726a.44969.44969 0 00-.1098-.3137c-.0325-.0406-.0739-.0731-.1211-.0949-.0472-.0218-.0989-.0323-.1508-.0306h-1.2968v1.668h1.2968c.0519.0016.1036-.0089.1508-.0307.0472-.0217.0886-.0542.1211-.0948.0752-.0889.1144-.2027.1098-.319v-.7843zm9.4434 1.8458l.9412 2.217h-1.0092l-.8732-2.0915h-.8994v2.0915h-.9516v-5.37h2.3739c.1499-.0022.2988.0264.4373.0839.1384.0576.2637.1429.3679.2507.108.1031.1934.2274.251.365.0576.1377.0861.2858.0837.435v.936c.0015.2346-.0677.4642-.1987.6588-.1345.1843-.3148.3302-.5229.4236zm-.2301-1.8458c.0048-.113-.0304-.2241-.0993-.3137a.335442.335442 0 00-.1212-.0949c-.0472-.0218-.0988-.0323-.1507-.0306h-1.2393v1.5373h1.2393a.35046.35046 0 00.1493-.0299c.047-.0208.0888-.0516.1226-.0904.0689-.0897.1041-.2007.0993-.3137v-.6641zm1.5687-.4392h1.3647v4.502h.9465v-4.502h1.3804v-.868h-3.7073l.0157.868zm6.8499 1.3072h-1.1452c-.251 0-.3817-.1412-.3817-.4236v-.4496c-.0041-.1154.033-.2285.1046-.319.0333-.041.0756-.0737.1237-.0955.0481-.0218.1007-.032.1534-.03h.8994c.0956-.0065.1904.0208.2679.0772.0774.0565.1325.1383.1556.2313l.1203.4392h.8262v-.481c.0037-.1485-.0231-.2961-.0789-.4338-.0558-.1376-.1393-.2623-.2453-.3662-.1046-.1053-.2293-.1883-.3668-.2441-.1375-.0557-.2849-.083-.4332-.0801h-1.3282a1.14537 1.14537 0 00-.4451.0856c-.1412.0579-.2694.1434-.377.2515-.1077.1082-.1926.2368-.2499.3782-.0572.1414-.0857.2929-.0836.4455v.7739c-.0016.1506.0272.3001.0847.4393.0575.1393.1425.2655.25.3711.1039.1084.229.194.3676.2516.1386.0576.2876.0859.4376.0831h1.1452c.2562 0 .3817.1464.3817.434v.5856c.0042.1138-.0329.2253-.1046.3138-.0324.042-.0746.0754-.1229.0972-.0484.0219-.1013.0316-.1542.0283h-.9099c-.0962.0098-.1926-.0162-.2708-.0732-.0782-.0569-.1326-.1408-.1527-.2354l-.1255-.4915h-.8262v.5229c-.0036.1488.0228.2967.0776.4351.0548.1383.1369.2642.2414.3702.1065.1037.2324.1854.3707.2401.1382.0548.2859.0816.4345.0788h1.3439c.1506.0017.3001-.0271.4394-.0846.1392-.0575.2654-.1425.371-.25.1073-.1055.1919-.2318.2485-.3712.0567-.1394.0842-.2889.081-.4393v-.9255c-.0054-.3007-.1272-.5875-.3398-.8001-.2127-.2126-.4995-.3344-.8001-.3398h.0157zm2.3373-1.9975l-.204.3138-.2039-.3138h-.0836v.5229h.0836v-.3242-.0575l.0314.0523.1725.2615.1621-.2563v-.0575.3817h.0942v-.5229h-.0523zm-14.7926.1569c.1098.1017.1964.2257.2542.3637.0577.138.0851.2868.0805.4363v3.0851c.0039.1517-.0238.3026-.0815.4431a1.09284 1.09284 0 01-.2532.3726c-.1056.1075-.2318.1925-.3711.25-.1393.0575-.2887.0863-.4394.0846h-1.281c-.1515.0018-.3018-.0269-.4419-.0844a1.130747 1.130747 0 01-.3739-.2502 1.11401 1.11401 0 01-.2514-.3733 1.112515 1.112515 0 01-.0832-.4424V24.053c-.0012-.1491.0279-.2968.0854-.4343s.1423-.2619.2492-.3657c.1066-.1077.2338-.1928.3739-.2503.1401-.0574.2904-.0862.4419-.0844h1.281c.2953-.0061.581.1048.7948.3085h.0157zm-.6118.9726c.0038-.1146-.0354-.2265-.1098-.3137-.0324-.0406-.0739-.0731-.1211-.0949-.0472-.0218-.0988-.0323-.1508-.0306h-.9098a.349514.349514 0 00-.1558.0299c-.0489.0217-.0922.0544-.1266.0956-.0689.0896-.1041.2007-.0993.3137v2.7556c-.004.1113.0311.2205.0993.3085.0333.0427.0763.0769.1254.0996.0491.0227.1029.0334.157.0311h.9098c.0525.0015.1045-.0096.1518-.0324a.328375.328375 0 00.1201-.0983c.0736-.0856.1128-.1956.1098-.3085v-2.7556zm4.0001-15.00174H67.4529l-1.5687 2.48374h10.2121l1.6-2.48374zm3.8747 7.44594h-1.5687l-1.5687 2.489h4.706l1.5687 2.4837h2.9805L79.7722 9.10876 73.4191 19.1326h-6.944l1.5948-2.4838h4.3139l1.5686-2.4837h-9.6368l-1.5687 2.4837h2.3112l-3.1374 4.9727H74.857l4.91-7.7963 1.804 2.8184z" fill="#000"/><path d="M0 44.5294h7.3623l1.52684 11.65 1.61046-11.65h6.9493v24.9105h-5.3074V55.8448L9.78851 69.4399h-2.2066l-2.353-13.5951v13.5951H0V44.5294zM27.347 65.7901h-2.8393l-.4079 3.6602h-5.3439l3.5504-24.9105h7.5819l3.8851 24.9105h-5.9767l-.4496-3.6602zm-2.2485-4.9204h1.7151l-.8575-7.5663-.8576 7.5663zM35.0859 44.5294h8.8369c3.4354 0 5.5635 1.5059 5.5635 5.4904v13.6945c0 3.9164-1.9033 5.7518-5.5269 5.7518h-8.8735V44.5294zm6.0865 20.1208h.8628c.8941 0 1.1555-.4653 1.1555-1.5059V50.5949c0-1.0457-.2248-1.4379-1.0823-1.4379h-.936v15.4932zM50.7202 44.5294h8.8369c3.4354 0 5.5687 1.5059 5.5687 5.4904v13.6945c0 3.9164-1.9085 5.7518-5.5321 5.7518h-8.8735V44.5294zm6.0865 20.1208h.8627c.8942 0 1.1556-.4653 1.1556-1.5059V50.5949c0-1.0457-.2248-1.4379-1.0824-1.4379h-.9359v15.4932zM78.2034 44.5294v5.1453h-5.6838v4.2511h4.3713v5.2916h-4.3713v4.957h5.6838v5.2655H66.4331V44.5294h11.7703zM85.4874 44.5294l3.1739 12.0265V44.5294h5.2708v24.9105h-5.4172l-3.6602-12.9886v12.9886h-5.344V44.5294h5.9767zM126.236 49.6746v3.3831h-5.725v-3.906c0-2.5151 1.605-4.9256 5.955-4.9256h1.297c4.277 0 6.568 1.8458 6.568 5.1923v1.302c0 2.5099-.152 3.8171-2.484 6.327-.8.9046-1.715 1.8719-2.745 2.9125-3.587 3.7805-3.478 4.1831-3.478 4.706h8.707v4.7897h-14.275v-3.2838c0-2.5778.151-3.7805 3.775-8.4708.805-1.1033 1.684-2.306 2.405-3.2106 1.339-1.9085 1.642-2.5465 1.642-3.4511v-1.3647c0-.6379-.267-.936-.837-.936-.569 0-.805.3085-.805.936zM135.952 51.9283v-2.7452c0-2.5465 1.683-4.957 5.955-4.957h1.109c4.314 0 6.411 1.9085 6.411 4.957v2.4785c.048.7306-.109 1.4602-.452 2.1068-.344.6466-.861 1.1845-1.494 1.5534.683.1964 1.281.6166 1.696 1.1932.415.5766.625 1.276.595 1.986v5.7518c0 3.6184-2.615 5.5897-6.641 5.5897h-1.109c-4.883 0-6.374-2.5413-6.374-4.9204V60.603h6.056v3.2785c0 .233.092.4565.257.6212.165.1647.388.2573.621.2573.233 0 .456-.0926.621-.2573.165-.1647.257-.3882.257-.6212v-4.272c0-.6379-.115-.8366-.836-.8366h-3.012v-5.0564h2.787c.612 0 .915-.3032.915-.8732v-3.1687c0-.7007-.23-.9046-.842-.9046s-.8.2353-.8.9046v2.2432l-5.72.0105zM117.18 44.5345c-.698.5174-1.501.875-2.352 1.0476-.851.1726-1.73.1559-2.574-.0488-1.123-.2668-2.165-.7993-3.04-1.5527-.874-.7534-1.555-1.7057-1.985-2.7769-.429 1.0723-1.111 2.0254-1.986 2.7789-.876.7536-1.92 1.2854-3.044 1.5507-.846.2071-1.728.225-2.5822.0524a5.922864 5.922864 0 01-2.3591-1.0512h-.7059v18.1548c.0144.8329.3175 1.635.8575 2.2694.9203 1.1137 2.4837 1.8405 4.6377 2.149 1.715.251 2.986.7896 3.88 1.6524.495.5249.927 1.1057 1.287 1.7307.361-.6224.791-1.2029 1.281-1.7307 1.086-.9463 2.444-1.5247 3.879-1.6524 2.16-.3085 3.723-1.0457 4.638-2.149.542-.6335.845-1.4361.858-2.2694V44.5345h-.69z" fill="#fff"/><path d="M117.248 45.2405c-.744.509-1.588.8535-2.475 1.0104-.887.1569-1.798.1226-2.671-.1006-1.005-.2291-1.954-.6572-2.791-1.2589-.837-.6017-1.545-1.3648-2.082-2.2444-.538.8788-1.247 1.6414-2.083 2.243-.837.6016-1.786 1.0301-2.79 1.2603-.873.2235-1.784.258-2.6712.1011-.8874-.1569-1.731-.5016-2.4744-1.0109v17.4489c0 .5908.2458 3.1059 4.9416 3.7857 1.856.2719 3.242.868 4.235 1.8249.319.305.601.6453.842 1.0144.237-.3703.518-.7108.837-1.0144.993-.9569 2.379-1.5687 4.235-1.8249 4.706-.6798 4.947-3.1949 4.947-3.7857V45.2405z" fill="#013369"/><path d="M107.229 67.5417s1.36-1.6837 4.905-2.2275c4.058-.6274 3.937-2.5308 3.937-2.6144v-9.1506H98.3871v9.1349c0 .0993-.1203 2.0027 3.9319 2.6144 3.545.5857 4.91 2.2432 4.91 2.2432z" fill="#fff"/><path d="M103.103 60.2265v-4.3452l-.522-.3085v-1.1243h2.483v1.1243l-.523.3085v8.863l-1.328-.3974-1.919-5.6629v3.7334l.607.4654v1.1556l-2.6617-.6798v-.983l.6066-.2353v-6.2747l-.6223-.3085v-1.1242h2.0134l1.866 5.7936zM107.679 64.2005l.523.6327v1.1295l-2.615-.9831v-.9569l.56-.23v-7.9114l-.581-.2928v-1.1399h4.586v2.2903h-1.009l-.303-.9412h-1.166v2.6563h.873l.345-.5229h.701v2.3582h-.701l-.329-.4758h-.889l.005 4.387zM110.591 64.5979v-1.1242l.654-.5229v-7.0695l-.56-.2928v-1.1399h2.615v1.1399l-.523.2928v6.6146l1.135-.3085.219-1.7308h1.088v2.8968l-4.628 1.2445z" fill="#D50A0A"/><path d="M98.8264 51.6772l-.8-.6013h.9725l.3242-.9255.3242.9255h.9777l-.7528.6013.2928.9412-.8157-.5595-.7896.5595.2667-.9412zM102.314 51.6772l-.8-.6013h.973l.324-.9255.324.9255h.978l-.805.6013.298.9412-.795-.5595-.795.5595.298-.9412zM98.8264 48.5451l-.8-.6013h.9725l.3242-.9255.3242.9255h.9777l-.7528.6013.2928.9413-.8157-.5595-.7896.5595.2667-.9413zM102.314 48.5451l-.8-.6013h.973l.324-.9255.324.9255h.978l-.805.6013.298.9413-.795-.5595-.795.5595.298-.9413zM115.904 52.6184l-.795-.5595-.795.5595.293-.9412-.8-.6013h.978l.324-.9255.324.9255h.978l-.8.6013.293.9412zM112.422 52.6184l-.795-.5595-.774.5595.293-.9412-.816-.6013h.978l.319-.9255.324.9255h.994l-.8.6013.277.9412zM115.904 49.4864l-.795-.5595-.795.5595.293-.9413-.8-.6013h.978l.324-.9255.324.9255h.978l-.8.6013.293.9413zM112.422 49.4864l-.795-.5595-.774.5595.293-.9413-.816-.6013h.978l.319-.9255.324.9255h.994l-.8.6013.277.9413zM109.431 46.0144c-.365.2155-.699.4793-.994.7843.127.0726.247.1547.361.2458l-.256.2405c-.316-.2492-.681-.4275-1.072-.5229.099-.0732.209-.1412.314-.2092.108.0289.214.0638.319.1046.373-.2889.783-.5279 1.218-.7111-.077-.0266-.159-.0372-.241-.0314-2.567.0314-4.93 1.9504-4.481 5.2289.047.4365.165.8623.351 1.2602.124-1.0561.417-2.0853.868-3.0485-.125-.0438-.253-.0805-.382-.1098l.146-.2928c.435.0736.844.2532 1.192.5229-.083.1359-.141.2196-.177.2876-.118-.0926-.244-.1748-.377-.2458-.521.9084-.902 1.8903-1.129 2.9125 0 .0419.078.0575.141.0471 2.813-.3608 4.126-1.7988 4.528-3.3517.256-.9783.196-2.0126-.172-2.9544-.027-.0418-.074-.1568-.157-.1568zm-2.421 3.1373c-.348-.289-.764-.4851-1.208-.5699 0 0 .125-.2092.199-.319.449.088.868.2896 1.218.5856l-.209.3033zm.465-.6484c-.351-.2948-.769-.4979-1.218-.5909.068-.0888.151-.1882.235-.2771.449.0804.87.2729 1.224.5595-.094.0941-.173.1935-.241.2876v.0209zm.523-.617c-.34-.2845-.743-.482-1.176-.5752.099-.0941.203-.1778.298-.2562.409.0868.792.2676 1.119.5281-.084.1098-.173.1935-.251.2824l.01.0209z" fill="#fff"/></g><defs><clipPath id="clip0_5758_154390"><path fill="#fff" d="M0 0h149.787v70.4909H0z"/></clipPath></defs></svg>